<mxfile host="65bd71144e">
    <diagram id="hsp9-NueZwUlGCEhFkof" name="Use Case">
        <mxGraphModel dx="1567" dy="1712" grid="1" gridSize="10" guides="1" tooltips="1" connect="1" arrows="1" fold="1" page="0" pageScale="1" pageWidth="850" pageHeight="1100" math="0" shadow="0">
            <root>
                <mxCell id="0"/>
                <mxCell id="1" parent="0"/>
                <mxCell id="6rFO9PX0ZzHkZmPm3LeD-29" style="edgeStyle=none;html=1;entryX=0;entryY=0.5;entryDx=0;entryDy=0;labelBackgroundColor=none;fontSize=30;fontColor=default;endArrow=none;endFill=0;" edge="1" parent="1" source="2" target="6rFO9PX0ZzHkZmPm3LeD-9">
                    <mxGeometry relative="1" as="geometry"/>
                </mxCell>
                <mxCell id="6rFO9PX0ZzHkZmPm3LeD-30" style="edgeStyle=none;html=1;entryX=0;entryY=0.5;entryDx=0;entryDy=0;labelBackgroundColor=none;fontSize=30;fontColor=default;endArrow=none;endFill=0;" edge="1" parent="1" source="2" target="6rFO9PX0ZzHkZmPm3LeD-7">
                    <mxGeometry relative="1" as="geometry"/>
                </mxCell>
                <mxCell id="6rFO9PX0ZzHkZmPm3LeD-31" style="edgeStyle=none;html=1;entryX=0;entryY=0.5;entryDx=0;entryDy=0;labelBackgroundColor=none;fontSize=30;fontColor=default;endArrow=none;endFill=0;" edge="1" parent="1" source="2" target="6rFO9PX0ZzHkZmPm3LeD-8">
                    <mxGeometry relative="1" as="geometry"/>
                </mxCell>
                <mxCell id="6rFO9PX0ZzHkZmPm3LeD-33" style="edgeStyle=none;html=1;entryX=0;entryY=0;entryDx=0;entryDy=0;labelBackgroundColor=none;fontSize=17;fontColor=default;endArrow=none;endFill=0;" edge="1" parent="1" source="2" target="6rFO9PX0ZzHkZmPm3LeD-32">
                    <mxGeometry relative="1" as="geometry"/>
                </mxCell>
                <mxCell id="2" value="Aluno" style="shape=umlActor;verticalLabelPosition=bottom;verticalAlign=top;html=1;outlineConnect=0;fontSize=17;" vertex="1" parent="1">
                    <mxGeometry x="-110" y="450" width="60" height="120" as="geometry"/>
                </mxCell>
                <mxCell id="6rFO9PX0ZzHkZmPm3LeD-7" value="&lt;span data-lucid-content=&quot;{&amp;quot;t&amp;quot;:&amp;quot;Fazer cadastro/login&amp;quot;,&amp;quot;m&amp;quot;:[{&amp;quot;s&amp;quot;:0,&amp;quot;n&amp;quot;:&amp;quot;s&amp;quot;,&amp;quot;v&amp;quot;:40,&amp;quot;e&amp;quot;:20}]}&quot; data-lucid-type=&quot;application/vnd.lucid.text&quot;&gt;&lt;font style=&quot;font-size: 17px;&quot;&gt;Fazer cadastro/login&lt;/font&gt;&lt;/span&gt;" style="ellipse;whiteSpace=wrap;html=1;" vertex="1" parent="1">
                    <mxGeometry x="230" y="210" width="120" height="80" as="geometry"/>
                </mxCell>
                <mxCell id="6rFO9PX0ZzHkZmPm3LeD-8" value="&lt;span data-lucid-content=&quot;{&amp;quot;t&amp;quot;:&amp;quot;Cadastro de Paciente&amp;quot;,&amp;quot;m&amp;quot;:[{&amp;quot;s&amp;quot;:0,&amp;quot;n&amp;quot;:&amp;quot;s&amp;quot;,&amp;quot;v&amp;quot;:40,&amp;quot;e&amp;quot;:20}]}&quot; data-lucid-type=&quot;application/vnd.lucid.text&quot;&gt;&lt;span style=&quot;font-size: 17px;&quot;&gt;Cadastro de Paciente&lt;/span&gt;&lt;/span&gt;" style="ellipse;whiteSpace=wrap;html=1;" vertex="1" parent="1">
                    <mxGeometry x="230" y="310" width="120" height="80" as="geometry"/>
                </mxCell>
                <mxCell id="6rFO9PX0ZzHkZmPm3LeD-15" value="&#10;&lt;span data-lucid-content=&quot;{&amp;quot;t&amp;quot;:&amp;quot;&lt;&lt;incluir&gt;&gt;&amp;quot;,&amp;quot;m&amp;quot;:[{&amp;quot;s&amp;quot;:0,&amp;quot;n&amp;quot;:&amp;quot;b&amp;quot;,&amp;quot;v&amp;quot;:true,&amp;quot;e&amp;quot;:11},{&amp;quot;s&amp;quot;:0,&amp;quot;n&amp;quot;:&amp;quot;c&amp;quot;,&amp;quot;v&amp;quot;:&amp;quot;333333ff&amp;quot;,&amp;quot;e&amp;quot;:11},{&amp;quot;s&amp;quot;:0,&amp;quot;n&amp;quot;:&amp;quot;fsp&amp;quot;,&amp;quot;v&amp;quot;:&amp;quot;ss_presetShapeStyle1_textStyle&amp;quot;,&amp;quot;e&amp;quot;:11},{&amp;quot;s&amp;quot;:0,&amp;quot;n&amp;quot;:&amp;quot;s&amp;quot;,&amp;quot;v&amp;quot;:31.111111111111114,&amp;quot;e&amp;quot;:11}]}&quot; data-lucid-type=&quot;application/vnd.lucid.text&quot; style=&quot;font-size: 11px;&quot;&gt;&lt;span style=&quot;font-weight: bold; font-size: 11px;&quot;&gt;&amp;lt;&amp;lt;incluir&amp;gt;&amp;gt;&lt;/span&gt;&lt;/span&gt;&#10;&#10;" style="edgeStyle=none;html=1;entryX=1;entryY=0;entryDx=0;entryDy=0;dashed=1;fontSize=11;labelBackgroundColor=none;fontColor=default;" edge="1" parent="1" source="6rFO9PX0ZzHkZmPm3LeD-9" target="6rFO9PX0ZzHkZmPm3LeD-12">
                    <mxGeometry relative="1" as="geometry"/>
                </mxCell>
                <mxCell id="6rFO9PX0ZzHkZmPm3LeD-9" value="&lt;span data-lucid-content=&quot;{&amp;quot;t&amp;quot;:&amp;quot;Gerenciamento de Prontuário&amp;quot;,&amp;quot;m&amp;quot;:[{&amp;quot;s&amp;quot;:0,&amp;quot;n&amp;quot;:&amp;quot;s&amp;quot;,&amp;quot;v&amp;quot;:40,&amp;quot;e&amp;quot;:27}]}&quot; data-lucid-type=&quot;application/vnd.lucid.text&quot;&gt;&lt;span style=&quot;font-size: 17px;&quot;&gt;Gerenciamento de Prontuário&lt;/span&gt;&lt;/span&gt;" style="ellipse;whiteSpace=wrap;html=1;" vertex="1" parent="1">
                    <mxGeometry x="220" y="420" width="140" height="90" as="geometry"/>
                </mxCell>
                <mxCell id="6rFO9PX0ZzHkZmPm3LeD-10" value="&lt;span data-lucid-content=&quot;{&amp;quot;t&amp;quot;:&amp;quot;Imprimir prontuário&amp;quot;,&amp;quot;m&amp;quot;:[{&amp;quot;s&amp;quot;:0,&amp;quot;n&amp;quot;:&amp;quot;s&amp;quot;,&amp;quot;v&amp;quot;:40,&amp;quot;e&amp;quot;:19}]}&quot; data-lucid-type=&quot;application/vnd.lucid.text&quot;&gt;&lt;span style=&quot;font-size: 17px;&quot;&gt;Imprimir prontuário&lt;/span&gt;&lt;/span&gt;" style="ellipse;whiteSpace=wrap;html=1;" vertex="1" parent="1">
                    <mxGeometry x="390" y="520" width="120" height="80" as="geometry"/>
                </mxCell>
                <mxCell id="6rFO9PX0ZzHkZmPm3LeD-11" value="&lt;span data-lucid-content=&quot;{&amp;quot;t&amp;quot;:&amp;quot;Adicionar, Digitalizar ou Atualizar prontuário&amp;quot;,&amp;quot;m&amp;quot;:[{&amp;quot;s&amp;quot;:0,&amp;quot;n&amp;quot;:&amp;quot;s&amp;quot;,&amp;quot;v&amp;quot;:40,&amp;quot;e&amp;quot;:46}]}&quot; data-lucid-type=&quot;application/vnd.lucid.text&quot;&gt;&lt;font style=&quot;font-size: 17px;&quot;&gt;Adicionar, Digitalizar ou Atualizar prontuário&lt;/font&gt;&lt;/span&gt;" style="ellipse;whiteSpace=wrap;html=1;" vertex="1" parent="1">
                    <mxGeometry x="240" y="580" width="170" height="120" as="geometry"/>
                </mxCell>
                <mxCell id="6rFO9PX0ZzHkZmPm3LeD-12" value="&lt;span data-lucid-content=&quot;{&amp;quot;t&amp;quot;:&amp;quot;Adicionar comentário&amp;quot;,&amp;quot;m&amp;quot;:[{&amp;quot;s&amp;quot;:0,&amp;quot;n&amp;quot;:&amp;quot;s&amp;quot;,&amp;quot;v&amp;quot;:40,&amp;quot;e&amp;quot;:20}]}&quot; data-lucid-type=&quot;application/vnd.lucid.text&quot;&gt;&lt;span style=&quot;font-size: 17px;&quot;&gt;Adicionar comentário&lt;/span&gt;&lt;/span&gt;" style="ellipse;whiteSpace=wrap;html=1;" vertex="1" parent="1">
                    <mxGeometry x="120" y="550" width="120" height="80" as="geometry"/>
                </mxCell>
                <mxCell id="6rFO9PX0ZzHkZmPm3LeD-16" value="&#10;&lt;span data-lucid-content=&quot;{&amp;quot;t&amp;quot;:&amp;quot;&lt;&lt;incluir&gt;&gt;&amp;quot;,&amp;quot;m&amp;quot;:[{&amp;quot;s&amp;quot;:0,&amp;quot;n&amp;quot;:&amp;quot;b&amp;quot;,&amp;quot;v&amp;quot;:true,&amp;quot;e&amp;quot;:11},{&amp;quot;s&amp;quot;:0,&amp;quot;n&amp;quot;:&amp;quot;c&amp;quot;,&amp;quot;v&amp;quot;:&amp;quot;333333ff&amp;quot;,&amp;quot;e&amp;quot;:11},{&amp;quot;s&amp;quot;:0,&amp;quot;n&amp;quot;:&amp;quot;fsp&amp;quot;,&amp;quot;v&amp;quot;:&amp;quot;ss_presetShapeStyle1_textStyle&amp;quot;,&amp;quot;e&amp;quot;:11},{&amp;quot;s&amp;quot;:0,&amp;quot;n&amp;quot;:&amp;quot;s&amp;quot;,&amp;quot;v&amp;quot;:31.111111111111114,&amp;quot;e&amp;quot;:11}]}&quot; data-lucid-type=&quot;application/vnd.lucid.text&quot; style=&quot;font-size: 11px;&quot;&gt;&lt;span style=&quot;font-weight: bold; font-size: 11px;&quot;&gt;&amp;lt;&amp;lt;incluir&amp;gt;&amp;gt;&lt;/span&gt;&lt;/span&gt;&#10;&#10;" style="edgeStyle=none;html=1;entryX=0.5;entryY=0;entryDx=0;entryDy=0;dashed=1;fontSize=11;labelBackgroundColor=none;fontColor=default;" edge="1" parent="1" source="6rFO9PX0ZzHkZmPm3LeD-9" target="6rFO9PX0ZzHkZmPm3LeD-11">
                    <mxGeometry relative="1" as="geometry">
                        <mxPoint x="271.441233607364" y="516.0845411262485" as="sourcePoint"/>
                        <mxPoint x="232.42640687119297" y="571.7157287525381" as="targetPoint"/>
                    </mxGeometry>
                </mxCell>
                <mxCell id="6rFO9PX0ZzHkZmPm3LeD-17" value="&#10;&lt;span data-lucid-content=&quot;{&amp;quot;t&amp;quot;:&amp;quot;&lt;&lt;incluir&gt;&gt;&amp;quot;,&amp;quot;m&amp;quot;:[{&amp;quot;s&amp;quot;:0,&amp;quot;n&amp;quot;:&amp;quot;b&amp;quot;,&amp;quot;v&amp;quot;:true,&amp;quot;e&amp;quot;:11},{&amp;quot;s&amp;quot;:0,&amp;quot;n&amp;quot;:&amp;quot;c&amp;quot;,&amp;quot;v&amp;quot;:&amp;quot;333333ff&amp;quot;,&amp;quot;e&amp;quot;:11},{&amp;quot;s&amp;quot;:0,&amp;quot;n&amp;quot;:&amp;quot;fsp&amp;quot;,&amp;quot;v&amp;quot;:&amp;quot;ss_presetShapeStyle1_textStyle&amp;quot;,&amp;quot;e&amp;quot;:11},{&amp;quot;s&amp;quot;:0,&amp;quot;n&amp;quot;:&amp;quot;s&amp;quot;,&amp;quot;v&amp;quot;:31.111111111111114,&amp;quot;e&amp;quot;:11}]}&quot; data-lucid-type=&quot;application/vnd.lucid.text&quot; style=&quot;font-size: 11px;&quot;&gt;&lt;span style=&quot;font-weight: bold; font-size: 11px;&quot;&gt;&amp;lt;&amp;lt;incluir&amp;gt;&amp;gt;&lt;/span&gt;&lt;/span&gt;&#10;&#10;" style="edgeStyle=none;html=1;entryX=0;entryY=0;entryDx=0;entryDy=0;dashed=1;fontSize=11;labelBackgroundColor=none;fontColor=default;" edge="1" parent="1" source="6rFO9PX0ZzHkZmPm3LeD-9" target="6rFO9PX0ZzHkZmPm3LeD-10">
                    <mxGeometry relative="1" as="geometry">
                        <mxPoint x="313.30705021456595" y="519.179406712359" as="sourcePoint"/>
                        <mxPoint x="335.0000000000001" y="590" as="targetPoint"/>
                    </mxGeometry>
                </mxCell>
                <mxCell id="6rFO9PX0ZzHkZmPm3LeD-27" style="edgeStyle=none;html=1;exitX=1;exitY=0;exitDx=0;exitDy=0;entryX=0;entryY=1;entryDx=0;entryDy=0;labelBackgroundColor=none;fontSize=30;fontColor=default;endArrow=classic;endFill=1;dashed=1;" edge="1" parent="1" source="6rFO9PX0ZzHkZmPm3LeD-18" target="6rFO9PX0ZzHkZmPm3LeD-19">
                    <mxGeometry relative="1" as="geometry"/>
                </mxCell>
                <mxCell id="6rFO9PX0ZzHkZmPm3LeD-38" value="&amp;lt;&amp;lt;incluir&amp;gt;&amp;gt;" style="edgeLabel;html=1;align=center;verticalAlign=middle;resizable=0;points=[];fontSize=17;fontColor=default;" vertex="1" connectable="0" parent="6rFO9PX0ZzHkZmPm3LeD-27">
                    <mxGeometry x="-0.2519" y="-1" relative="1" as="geometry">
                        <mxPoint x="-28" y="25" as="offset"/>
                    </mxGeometry>
                </mxCell>
                <mxCell id="6rFO9PX0ZzHkZmPm3LeD-18" value="&lt;span data-lucid-content=&quot;{&amp;quot;t&amp;quot;:&amp;quot;Cadastro de Paciente&amp;quot;,&amp;quot;m&amp;quot;:[{&amp;quot;s&amp;quot;:0,&amp;quot;n&amp;quot;:&amp;quot;s&amp;quot;,&amp;quot;v&amp;quot;:40,&amp;quot;e&amp;quot;:20}]}&quot; data-lucid-type=&quot;application/vnd.lucid.text&quot;&gt;&lt;span style=&quot;font-size: 17px;&quot;&gt;Sistema&lt;/span&gt;&lt;/span&gt;" style="ellipse;whiteSpace=wrap;html=1;" vertex="1" parent="1">
                    <mxGeometry x="290" y="870" width="120" height="80" as="geometry"/>
                </mxCell>
                <mxCell id="6rFO9PX0ZzHkZmPm3LeD-28" style="edgeStyle=none;html=1;exitX=1;exitY=0;exitDx=0;exitDy=0;labelBackgroundColor=none;fontSize=30;fontColor=default;endArrow=none;endFill=0;" edge="1" parent="1" source="6rFO9PX0ZzHkZmPm3LeD-19" target="6rFO9PX0ZzHkZmPm3LeD-23">
                    <mxGeometry relative="1" as="geometry"/>
                </mxCell>
                <mxCell id="6rFO9PX0ZzHkZmPm3LeD-19" value="&lt;span data-lucid-content=&quot;{&amp;quot;t&amp;quot;:&amp;quot;Aviso de Ausência&amp;quot;,&amp;quot;m&amp;quot;:[{&amp;quot;s&amp;quot;:0,&amp;quot;n&amp;quot;:&amp;quot;s&amp;quot;,&amp;quot;v&amp;quot;:40,&amp;quot;e&amp;quot;:17}]}&quot; data-lucid-type=&quot;application/vnd.lucid.text&quot;&gt;&lt;span style=&quot;font-size: 17px;&quot;&gt;Aviso de Ausência&lt;/span&gt;&lt;/span&gt;" style="ellipse;whiteSpace=wrap;html=1;" vertex="1" parent="1">
                    <mxGeometry x="640" y="400" width="120" height="80" as="geometry"/>
                </mxCell>
                <mxCell id="6rFO9PX0ZzHkZmPm3LeD-25" style="edgeStyle=none;html=1;labelBackgroundColor=none;fontSize=17;fontColor=default;endArrow=none;endFill=0;" edge="1" parent="1" source="6rFO9PX0ZzHkZmPm3LeD-22" target="6rFO9PX0ZzHkZmPm3LeD-24">
                    <mxGeometry relative="1" as="geometry"/>
                </mxCell>
                <mxCell id="6rFO9PX0ZzHkZmPm3LeD-39" style="edgeStyle=none;html=1;entryX=1;entryY=0.5;entryDx=0;entryDy=0;labelBackgroundColor=none;fontSize=17;fontColor=default;endArrow=none;endFill=0;" edge="1" parent="1" source="6rFO9PX0ZzHkZmPm3LeD-22" target="6rFO9PX0ZzHkZmPm3LeD-8">
                    <mxGeometry relative="1" as="geometry">
                        <Array as="points"/>
                    </mxGeometry>
                </mxCell>
                <mxCell id="6rFO9PX0ZzHkZmPm3LeD-41" style="edgeStyle=none;html=1;entryX=1;entryY=0.5;entryDx=0;entryDy=0;labelBackgroundColor=none;fontSize=17;fontColor=default;endArrow=none;endFill=0;" edge="1" parent="1" source="6rFO9PX0ZzHkZmPm3LeD-22" target="6rFO9PX0ZzHkZmPm3LeD-9">
                    <mxGeometry relative="1" as="geometry">
                        <Array as="points">
                            <mxPoint x="880" y="610"/>
                        </Array>
                    </mxGeometry>
                </mxCell>
                <mxCell id="6rFO9PX0ZzHkZmPm3LeD-22" value="Administrador" style="shape=umlActor;verticalLabelPosition=bottom;verticalAlign=top;html=1;outlineConnect=0;fontSize=17;" vertex="1" parent="1">
                    <mxGeometry x="880" y="650" width="60" height="120" as="geometry"/>
                </mxCell>
                <mxCell id="6rFO9PX0ZzHkZmPm3LeD-35" style="edgeStyle=none;html=1;entryX=1;entryY=0.5;entryDx=0;entryDy=0;labelBackgroundColor=none;fontSize=17;fontColor=default;endArrow=none;endFill=0;" edge="1" parent="1" source="6rFO9PX0ZzHkZmPm3LeD-23" target="6rFO9PX0ZzHkZmPm3LeD-7">
                    <mxGeometry relative="1" as="geometry"/>
                </mxCell>
                <mxCell id="6rFO9PX0ZzHkZmPm3LeD-36" style="edgeStyle=none;html=1;entryX=1;entryY=0.5;entryDx=0;entryDy=0;labelBackgroundColor=none;fontSize=17;fontColor=default;endArrow=none;endFill=0;" edge="1" parent="1" source="6rFO9PX0ZzHkZmPm3LeD-23" target="6rFO9PX0ZzHkZmPm3LeD-8">
                    <mxGeometry relative="1" as="geometry"/>
                </mxCell>
                <mxCell id="6rFO9PX0ZzHkZmPm3LeD-37" style="edgeStyle=none;html=1;entryX=1;entryY=0.5;entryDx=0;entryDy=0;labelBackgroundColor=none;fontSize=17;fontColor=default;endArrow=none;endFill=0;" edge="1" parent="1" source="6rFO9PX0ZzHkZmPm3LeD-23" target="6rFO9PX0ZzHkZmPm3LeD-9">
                    <mxGeometry relative="1" as="geometry"/>
                </mxCell>
                <mxCell id="6rFO9PX0ZzHkZmPm3LeD-23" value="Professor" style="shape=umlActor;verticalLabelPosition=bottom;verticalAlign=top;html=1;outlineConnect=0;fontSize=17;" vertex="1" parent="1">
                    <mxGeometry x="880" y="210" width="60" height="120" as="geometry"/>
                </mxCell>
                <mxCell id="6rFO9PX0ZzHkZmPm3LeD-24" value="&lt;span data-lucid-content=&quot;{&amp;quot;t&amp;quot;:&amp;quot;Gerenciamento do Sistema&amp;quot;,&amp;quot;m&amp;quot;:[{&amp;quot;s&amp;quot;:0,&amp;quot;n&amp;quot;:&amp;quot;s&amp;quot;,&amp;quot;v&amp;quot;:40,&amp;quot;e&amp;quot;:24}]}&quot; data-lucid-type=&quot;application/vnd.lucid.text&quot;&gt;&lt;span style=&quot;font-size: 17px;&quot;&gt;Gerenciamento do Sistema&lt;/span&gt;&lt;/span&gt;" style="ellipse;whiteSpace=wrap;html=1;" vertex="1" parent="1">
                    <mxGeometry x="510" y="810" width="140" height="90" as="geometry"/>
                </mxCell>
                <mxCell id="6rFO9PX0ZzHkZmPm3LeD-26" value="Sistema de Psicologia" style="text;html=1;align=center;verticalAlign=middle;resizable=0;points=[];autosize=1;strokeColor=none;fillColor=none;fontSize=30;fontColor=default;" vertex="1" parent="1">
                    <mxGeometry x="260" y="-40" width="320" height="50" as="geometry"/>
                </mxCell>
                <mxCell id="6rFO9PX0ZzHkZmPm3LeD-34" value="&amp;lt;&amp;lt;incluir&amp;gt;&amp;gt;" style="edgeStyle=none;html=1;exitX=1;exitY=1;exitDx=0;exitDy=0;entryX=0;entryY=0.5;entryDx=0;entryDy=0;labelBackgroundColor=none;fontSize=17;fontColor=default;endArrow=classic;endFill=1;dashed=1;" edge="1" parent="1" source="6rFO9PX0ZzHkZmPm3LeD-32" target="6rFO9PX0ZzHkZmPm3LeD-18">
                    <mxGeometry relative="1" as="geometry"/>
                </mxCell>
                <mxCell id="6rFO9PX0ZzHkZmPm3LeD-32" value="Envio de Relatório" style="ellipse;whiteSpace=wrap;html=1;fontSize=17;direction=east;" vertex="1" parent="1">
                    <mxGeometry x="120" y="740" width="140" height="100" as="geometry"/>
                </mxCell>
                <mxCell id="6rFO9PX0ZzHkZmPm3LeD-43" style="edgeStyle=none;html=1;labelBackgroundColor=none;fontSize=17;fontColor=default;endArrow=none;endFill=0;" edge="1" parent="1" source="6rFO9PX0ZzHkZmPm3LeD-42" target="6rFO9PX0ZzHkZmPm3LeD-22">
                    <mxGeometry relative="1" as="geometry"/>
                </mxCell>
                <mxCell id="6rFO9PX0ZzHkZmPm3LeD-44" style="edgeStyle=none;html=1;exitX=1;exitY=0;exitDx=0;exitDy=0;labelBackgroundColor=none;fontSize=17;fontColor=default;endArrow=none;endFill=0;" edge="1" parent="1" source="6rFO9PX0ZzHkZmPm3LeD-42" target="6rFO9PX0ZzHkZmPm3LeD-23">
                    <mxGeometry relative="1" as="geometry"/>
                </mxCell>
                <mxCell id="6rFO9PX0ZzHkZmPm3LeD-42" value="Consulta e Filtragem de Prontuários" style="ellipse;whiteSpace=wrap;html=1;fontSize=17;" vertex="1" parent="1">
                    <mxGeometry x="580" y="640" width="140" height="90" as="geometry"/>
                </mxCell>
            </root>
        </mxGraphModel>
    </diagram>
    <diagram id="pk8VP5G30imUCMSdl7ce" name="DER">
        <mxGraphModel dx="875" dy="984" grid="1" gridSize="10" guides="1" tooltips="1" connect="1" arrows="1" fold="1" page="0" pageScale="1" pageWidth="850" pageHeight="1100" math="0" shadow="0">
            <root>
                <mxCell id="0"/>
                <mxCell id="1" parent="0"/>
                <mxCell id="xlqCLeBauGanB82xp4Bk-2" value="Table" style="shape=table;startSize=30;container=1;collapsible=1;childLayout=tableLayout;fixedRows=1;rowLines=0;fontStyle=1;align=center;resizeLast=1;" vertex="1" parent="1">
                    <mxGeometry x="140" y="130" width="180" height="150" as="geometry"/>
                </mxCell>
                <mxCell id="xlqCLeBauGanB82xp4Bk-3" value="" style="shape=tableRow;horizontal=0;startSize=0;swimlaneHead=0;swimlaneBody=0;fillColor=none;collapsible=0;dropTarget=0;points=[[0,0.5],[1,0.5]];portConstraint=eastwest;top=0;left=0;right=0;bottom=1;" vertex="1" parent="xlqCLeBauGanB82xp4Bk-2">
                    <mxGeometry y="30" width="180" height="30" as="geometry"/>
                </mxCell>
                <mxCell id="xlqCLeBauGanB82xp4Bk-4" value="PK" style="shape=partialRectangle;connectable=0;fillColor=none;top=0;left=0;bottom=0;right=0;fontStyle=1;overflow=hidden;" vertex="1" parent="xlqCLeBauGanB82xp4Bk-3">
                    <mxGeometry width="30" height="30" as="geometry">
                        <mxRectangle width="30" height="30" as="alternateBounds"/>
                    </mxGeometry>
                </mxCell>
                <mxCell id="xlqCLeBauGanB82xp4Bk-5" value="UniqueID" style="shape=partialRectangle;connectable=0;fillColor=none;top=0;left=0;bottom=0;right=0;align=left;spacingLeft=6;fontStyle=5;overflow=hidden;" vertex="1" parent="xlqCLeBauGanB82xp4Bk-3">
                    <mxGeometry x="30" width="150" height="30" as="geometry">
                        <mxRectangle width="150" height="30" as="alternateBounds"/>
                    </mxGeometry>
                </mxCell>
                <mxCell id="xlqCLeBauGanB82xp4Bk-6" value="" style="shape=tableRow;horizontal=0;startSize=0;swimlaneHead=0;swimlaneBody=0;fillColor=none;collapsible=0;dropTarget=0;points=[[0,0.5],[1,0.5]];portConstraint=eastwest;top=0;left=0;right=0;bottom=0;" vertex="1" parent="xlqCLeBauGanB82xp4Bk-2">
                    <mxGeometry y="60" width="180" height="30" as="geometry"/>
                </mxCell>
                <mxCell id="xlqCLeBauGanB82xp4Bk-7" value="" style="shape=partialRectangle;connectable=0;fillColor=none;top=0;left=0;bottom=0;right=0;editable=1;overflow=hidden;" vertex="1" parent="xlqCLeBauGanB82xp4Bk-6">
                    <mxGeometry width="30" height="30" as="geometry">
                        <mxRectangle width="30" height="30" as="alternateBounds"/>
                    </mxGeometry>
                </mxCell>
                <mxCell id="xlqCLeBauGanB82xp4Bk-8" value="Row 1" style="shape=partialRectangle;connectable=0;fillColor=none;top=0;left=0;bottom=0;right=0;align=left;spacingLeft=6;overflow=hidden;" vertex="1" parent="xlqCLeBauGanB82xp4Bk-6">
                    <mxGeometry x="30" width="150" height="30" as="geometry">
                        <mxRectangle width="150" height="30" as="alternateBounds"/>
                    </mxGeometry>
                </mxCell>
                <mxCell id="xlqCLeBauGanB82xp4Bk-9" value="" style="shape=tableRow;horizontal=0;startSize=0;swimlaneHead=0;swimlaneBody=0;fillColor=none;collapsible=0;dropTarget=0;points=[[0,0.5],[1,0.5]];portConstraint=eastwest;top=0;left=0;right=0;bottom=0;" vertex="1" parent="xlqCLeBauGanB82xp4Bk-2">
                    <mxGeometry y="90" width="180" height="30" as="geometry"/>
                </mxCell>
                <mxCell id="xlqCLeBauGanB82xp4Bk-10" value="" style="shape=partialRectangle;connectable=0;fillColor=none;top=0;left=0;bottom=0;right=0;editable=1;overflow=hidden;" vertex="1" parent="xlqCLeBauGanB82xp4Bk-9">
                    <mxGeometry width="30" height="30" as="geometry">
                        <mxRectangle width="30" height="30" as="alternateBounds"/>
                    </mxGeometry>
                </mxCell>
                <mxCell id="xlqCLeBauGanB82xp4Bk-11" value="Row 2" style="shape=partialRectangle;connectable=0;fillColor=none;top=0;left=0;bottom=0;right=0;align=left;spacingLeft=6;overflow=hidden;" vertex="1" parent="xlqCLeBauGanB82xp4Bk-9">
                    <mxGeometry x="30" width="150" height="30" as="geometry">
                        <mxRectangle width="150" height="30" as="alternateBounds"/>
                    </mxGeometry>
                </mxCell>
                <mxCell id="xlqCLeBauGanB82xp4Bk-12" value="" style="shape=tableRow;horizontal=0;startSize=0;swimlaneHead=0;swimlaneBody=0;fillColor=none;collapsible=0;dropTarget=0;points=[[0,0.5],[1,0.5]];portConstraint=eastwest;top=0;left=0;right=0;bottom=0;" vertex="1" parent="xlqCLeBauGanB82xp4Bk-2">
                    <mxGeometry y="120" width="180" height="30" as="geometry"/>
                </mxCell>
                <mxCell id="xlqCLeBauGanB82xp4Bk-13" value="" style="shape=partialRectangle;connectable=0;fillColor=none;top=0;left=0;bottom=0;right=0;editable=1;overflow=hidden;" vertex="1" parent="xlqCLeBauGanB82xp4Bk-12">
                    <mxGeometry width="30" height="30" as="geometry">
                        <mxRectangle width="30" height="30" as="alternateBounds"/>
                    </mxGeometry>
                </mxCell>
                <mxCell id="xlqCLeBauGanB82xp4Bk-14" value="Row 3" style="shape=partialRectangle;connectable=0;fillColor=none;top=0;left=0;bottom=0;right=0;align=left;spacingLeft=6;overflow=hidden;" vertex="1" parent="xlqCLeBauGanB82xp4Bk-12">
                    <mxGeometry x="30" width="150" height="30" as="geometry">
                        <mxRectangle width="150" height="30" as="alternateBounds"/>
                    </mxGeometry>
                </mxCell>
                <mxCell id="xlqCLeBauGanB82xp4Bk-15" value="Table" style="shape=table;startSize=30;container=1;collapsible=1;childLayout=tableLayout;fixedRows=1;rowLines=0;fontStyle=1;align=center;resizeLast=1;" vertex="1" parent="1">
                    <mxGeometry x="470" y="120" width="180" height="150" as="geometry"/>
                </mxCell>
                <mxCell id="xlqCLeBauGanB82xp4Bk-16" value="" style="shape=tableRow;horizontal=0;startSize=0;swimlaneHead=0;swimlaneBody=0;fillColor=none;collapsible=0;dropTarget=0;points=[[0,0.5],[1,0.5]];portConstraint=eastwest;top=0;left=0;right=0;bottom=0;" vertex="1" parent="xlqCLeBauGanB82xp4Bk-15">
                    <mxGeometry y="30" width="180" height="30" as="geometry"/>
                </mxCell>
                <mxCell id="xlqCLeBauGanB82xp4Bk-17" value="PK,FK1" style="shape=partialRectangle;connectable=0;fillColor=none;top=0;left=0;bottom=0;right=0;fontStyle=1;overflow=hidden;" vertex="1" parent="xlqCLeBauGanB82xp4Bk-16">
                    <mxGeometry width="60" height="30" as="geometry">
                        <mxRectangle width="60" height="30" as="alternateBounds"/>
                    </mxGeometry>
                </mxCell>
                <mxCell id="xlqCLeBauGanB82xp4Bk-18" value="Row 1" style="shape=partialRectangle;connectable=0;fillColor=none;top=0;left=0;bottom=0;right=0;align=left;spacingLeft=6;fontStyle=5;overflow=hidden;" vertex="1" parent="xlqCLeBauGanB82xp4Bk-16">
                    <mxGeometry x="60" width="120" height="30" as="geometry">
                        <mxRectangle width="120" height="30" as="alternateBounds"/>
                    </mxGeometry>
                </mxCell>
                <mxCell id="xlqCLeBauGanB82xp4Bk-19" value="" style="shape=tableRow;horizontal=0;startSize=0;swimlaneHead=0;swimlaneBody=0;fillColor=none;collapsible=0;dropTarget=0;points=[[0,0.5],[1,0.5]];portConstraint=eastwest;top=0;left=0;right=0;bottom=1;" vertex="1" parent="xlqCLeBauGanB82xp4Bk-15">
                    <mxGeometry y="60" width="180" height="30" as="geometry"/>
                </mxCell>
                <mxCell id="xlqCLeBauGanB82xp4Bk-20" value="PK,FK2" style="shape=partialRectangle;connectable=0;fillColor=none;top=0;left=0;bottom=0;right=0;fontStyle=1;overflow=hidden;" vertex="1" parent="xlqCLeBauGanB82xp4Bk-19">
                    <mxGeometry width="60" height="30" as="geometry">
                        <mxRectangle width="60" height="30" as="alternateBounds"/>
                    </mxGeometry>
                </mxCell>
                <mxCell id="xlqCLeBauGanB82xp4Bk-21" value="Row 2" style="shape=partialRectangle;connectable=0;fillColor=none;top=0;left=0;bottom=0;right=0;align=left;spacingLeft=6;fontStyle=5;overflow=hidden;" vertex="1" parent="xlqCLeBauGanB82xp4Bk-19">
                    <mxGeometry x="60" width="120" height="30" as="geometry">
                        <mxRectangle width="120" height="30" as="alternateBounds"/>
                    </mxGeometry>
                </mxCell>
                <mxCell id="xlqCLeBauGanB82xp4Bk-22" value="" style="shape=tableRow;horizontal=0;startSize=0;swimlaneHead=0;swimlaneBody=0;fillColor=none;collapsible=0;dropTarget=0;points=[[0,0.5],[1,0.5]];portConstraint=eastwest;top=0;left=0;right=0;bottom=0;" vertex="1" parent="xlqCLeBauGanB82xp4Bk-15">
                    <mxGeometry y="90" width="180" height="30" as="geometry"/>
                </mxCell>
                <mxCell id="xlqCLeBauGanB82xp4Bk-23" value="" style="shape=partialRectangle;connectable=0;fillColor=none;top=0;left=0;bottom=0;right=0;editable=1;overflow=hidden;" vertex="1" parent="xlqCLeBauGanB82xp4Bk-22">
                    <mxGeometry width="60" height="30" as="geometry">
                        <mxRectangle width="60" height="30" as="alternateBounds"/>
                    </mxGeometry>
                </mxCell>
                <mxCell id="xlqCLeBauGanB82xp4Bk-24" value="Row 3" style="shape=partialRectangle;connectable=0;fillColor=none;top=0;left=0;bottom=0;right=0;align=left;spacingLeft=6;overflow=hidden;" vertex="1" parent="xlqCLeBauGanB82xp4Bk-22">
                    <mxGeometry x="60" width="120" height="30" as="geometry">
                        <mxRectangle width="120" height="30" as="alternateBounds"/>
                    </mxGeometry>
                </mxCell>
                <mxCell id="xlqCLeBauGanB82xp4Bk-25" value="" style="shape=tableRow;horizontal=0;startSize=0;swimlaneHead=0;swimlaneBody=0;fillColor=none;collapsible=0;dropTarget=0;points=[[0,0.5],[1,0.5]];portConstraint=eastwest;top=0;left=0;right=0;bottom=0;" vertex="1" parent="xlqCLeBauGanB82xp4Bk-15">
                    <mxGeometry y="120" width="180" height="30" as="geometry"/>
                </mxCell>
                <mxCell id="xlqCLeBauGanB82xp4Bk-26" value="" style="shape=partialRectangle;connectable=0;fillColor=none;top=0;left=0;bottom=0;right=0;editable=1;overflow=hidden;" vertex="1" parent="xlqCLeBauGanB82xp4Bk-25">
                    <mxGeometry width="60" height="30" as="geometry">
                        <mxRectangle width="60" height="30" as="alternateBounds"/>
                    </mxGeometry>
                </mxCell>
                <mxCell id="xlqCLeBauGanB82xp4Bk-27" value="Row 4" style="shape=partialRectangle;connectable=0;fillColor=none;top=0;left=0;bottom=0;right=0;align=left;spacingLeft=6;overflow=hidden;" vertex="1" parent="xlqCLeBauGanB82xp4Bk-25">
                    <mxGeometry x="60" width="120" height="30" as="geometry">
                        <mxRectangle width="120" height="30" as="alternateBounds"/>
                    </mxGeometry>
                </mxCell>
                <mxCell id="xlqCLeBauGanB82xp4Bk-28" value="" style="edgeStyle=entityRelationEdgeStyle;fontSize=12;html=1;endArrow=ERoneToMany;" edge="1" parent="1">
                    <mxGeometry width="100" height="100" relative="1" as="geometry">
                        <mxPoint x="40" y="680" as="sourcePoint"/>
                        <mxPoint x="140" y="580" as="targetPoint"/>
                    </mxGeometry>
                </mxCell>
                <mxCell id="xlqCLeBauGanB82xp4Bk-29" value="" style="edgeStyle=entityRelationEdgeStyle;fontSize=12;html=1;endArrow=ERzeroToMany;endFill=1;" edge="1" parent="1">
                    <mxGeometry width="100" height="100" relative="1" as="geometry">
                        <mxPoint x="30" y="660" as="sourcePoint"/>
                        <mxPoint x="130" y="560" as="targetPoint"/>
                    </mxGeometry>
                </mxCell>
                <mxCell id="xlqCLeBauGanB82xp4Bk-30" value="" style="edgeStyle=entityRelationEdgeStyle;fontSize=12;html=1;endArrow=ERmandOne;" edge="1" parent="1">
                    <mxGeometry width="100" height="100" relative="1" as="geometry">
                        <mxPoint x="50" y="700" as="sourcePoint"/>
                        <mxPoint x="150" y="600" as="targetPoint"/>
                    </mxGeometry>
                </mxCell>
                <mxCell id="xlqCLeBauGanB82xp4Bk-31" value="" style="edgeStyle=entityRelationEdgeStyle;fontSize=12;html=1;endArrow=ERmandOne;startArrow=ERmandOne;" edge="1" parent="1">
                    <mxGeometry width="100" height="100" relative="1" as="geometry">
                        <mxPoint x="60" y="720" as="sourcePoint"/>
                        <mxPoint x="160" y="620" as="targetPoint"/>
                    </mxGeometry>
                </mxCell>
                <mxCell id="xlqCLeBauGanB82xp4Bk-32" value="" style="edgeStyle=entityRelationEdgeStyle;fontSize=12;html=1;endArrow=ERone;endFill=1;" edge="1" parent="1">
                    <mxGeometry width="100" height="100" relative="1" as="geometry">
                        <mxPoint x="70" y="740" as="sourcePoint"/>
                        <mxPoint x="170" y="640" as="targetPoint"/>
                    </mxGeometry>
                </mxCell>
                <mxCell id="xlqCLeBauGanB82xp4Bk-33" value="" style="edgeStyle=entityRelationEdgeStyle;fontSize=12;html=1;endArrow=ERzeroToOne;endFill=1;" edge="1" parent="1">
                    <mxGeometry width="100" height="100" relative="1" as="geometry">
                        <mxPoint x="80" y="760" as="sourcePoint"/>
                        <mxPoint x="180" y="660" as="targetPoint"/>
                    </mxGeometry>
                </mxCell>
                <mxCell id="xlqCLeBauGanB82xp4Bk-34" value="" style="edgeStyle=entityRelationEdgeStyle;fontSize=12;html=1;endArrow=ERmany;" edge="1" parent="1">
                    <mxGeometry width="100" height="100" relative="1" as="geometry">
                        <mxPoint x="20" y="640" as="sourcePoint"/>
                        <mxPoint x="120" y="540" as="targetPoint"/>
                    </mxGeometry>
                </mxCell>
                <mxCell id="xlqCLeBauGanB82xp4Bk-35" value="Table" style="shape=table;startSize=30;container=1;collapsible=1;childLayout=tableLayout;fixedRows=1;rowLines=0;fontStyle=1;align=center;resizeLast=1;" vertex="1" parent="1">
                    <mxGeometry x="130" y="330" width="180" height="150" as="geometry"/>
                </mxCell>
                <mxCell id="xlqCLeBauGanB82xp4Bk-36" value="" style="shape=tableRow;horizontal=0;startSize=0;swimlaneHead=0;swimlaneBody=0;fillColor=none;collapsible=0;dropTarget=0;points=[[0,0.5],[1,0.5]];portConstraint=eastwest;top=0;left=0;right=0;bottom=1;" vertex="1" parent="xlqCLeBauGanB82xp4Bk-35">
                    <mxGeometry y="30" width="180" height="30" as="geometry"/>
                </mxCell>
                <mxCell id="xlqCLeBauGanB82xp4Bk-37" value="PK" style="shape=partialRectangle;connectable=0;fillColor=none;top=0;left=0;bottom=0;right=0;fontStyle=1;overflow=hidden;" vertex="1" parent="xlqCLeBauGanB82xp4Bk-36">
                    <mxGeometry width="30" height="30" as="geometry">
                        <mxRectangle width="30" height="30" as="alternateBounds"/>
                    </mxGeometry>
                </mxCell>
                <mxCell id="xlqCLeBauGanB82xp4Bk-38" value="UniqueID" style="shape=partialRectangle;connectable=0;fillColor=none;top=0;left=0;bottom=0;right=0;align=left;spacingLeft=6;fontStyle=5;overflow=hidden;" vertex="1" parent="xlqCLeBauGanB82xp4Bk-36">
                    <mxGeometry x="30" width="150" height="30" as="geometry">
                        <mxRectangle width="150" height="30" as="alternateBounds"/>
                    </mxGeometry>
                </mxCell>
                <mxCell id="xlqCLeBauGanB82xp4Bk-39" value="" style="shape=tableRow;horizontal=0;startSize=0;swimlaneHead=0;swimlaneBody=0;fillColor=none;collapsible=0;dropTarget=0;points=[[0,0.5],[1,0.5]];portConstraint=eastwest;top=0;left=0;right=0;bottom=0;" vertex="1" parent="xlqCLeBauGanB82xp4Bk-35">
                    <mxGeometry y="60" width="180" height="30" as="geometry"/>
                </mxCell>
                <mxCell id="xlqCLeBauGanB82xp4Bk-40" value="" style="shape=partialRectangle;connectable=0;fillColor=none;top=0;left=0;bottom=0;right=0;editable=1;overflow=hidden;" vertex="1" parent="xlqCLeBauGanB82xp4Bk-39">
                    <mxGeometry width="30" height="30" as="geometry">
                        <mxRectangle width="30" height="30" as="alternateBounds"/>
                    </mxGeometry>
                </mxCell>
                <mxCell id="xlqCLeBauGanB82xp4Bk-41" value="Row 1" style="shape=partialRectangle;connectable=0;fillColor=none;top=0;left=0;bottom=0;right=0;align=left;spacingLeft=6;overflow=hidden;" vertex="1" parent="xlqCLeBauGanB82xp4Bk-39">
                    <mxGeometry x="30" width="150" height="30" as="geometry">
                        <mxRectangle width="150" height="30" as="alternateBounds"/>
                    </mxGeometry>
                </mxCell>
                <mxCell id="xlqCLeBauGanB82xp4Bk-42" value="" style="shape=tableRow;horizontal=0;startSize=0;swimlaneHead=0;swimlaneBody=0;fillColor=none;collapsible=0;dropTarget=0;points=[[0,0.5],[1,0.5]];portConstraint=eastwest;top=0;left=0;right=0;bottom=0;" vertex="1" parent="xlqCLeBauGanB82xp4Bk-35">
                    <mxGeometry y="90" width="180" height="30" as="geometry"/>
                </mxCell>
                <mxCell id="xlqCLeBauGanB82xp4Bk-43" value="" style="shape=partialRectangle;connectable=0;fillColor=none;top=0;left=0;bottom=0;right=0;editable=1;overflow=hidden;" vertex="1" parent="xlqCLeBauGanB82xp4Bk-42">
                    <mxGeometry width="30" height="30" as="geometry">
                        <mxRectangle width="30" height="30" as="alternateBounds"/>
                    </mxGeometry>
                </mxCell>
                <mxCell id="xlqCLeBauGanB82xp4Bk-44" value="Row 2" style="shape=partialRectangle;connectable=0;fillColor=none;top=0;left=0;bottom=0;right=0;align=left;spacingLeft=6;overflow=hidden;" vertex="1" parent="xlqCLeBauGanB82xp4Bk-42">
                    <mxGeometry x="30" width="150" height="30" as="geometry">
                        <mxRectangle width="150" height="30" as="alternateBounds"/>
                    </mxGeometry>
                </mxCell>
                <mxCell id="xlqCLeBauGanB82xp4Bk-45" value="" style="shape=tableRow;horizontal=0;startSize=0;swimlaneHead=0;swimlaneBody=0;fillColor=none;collapsible=0;dropTarget=0;points=[[0,0.5],[1,0.5]];portConstraint=eastwest;top=0;left=0;right=0;bottom=0;" vertex="1" parent="xlqCLeBauGanB82xp4Bk-35">
                    <mxGeometry y="120" width="180" height="30" as="geometry"/>
                </mxCell>
                <mxCell id="xlqCLeBauGanB82xp4Bk-46" value="" style="shape=partialRectangle;connectable=0;fillColor=none;top=0;left=0;bottom=0;right=0;editable=1;overflow=hidden;" vertex="1" parent="xlqCLeBauGanB82xp4Bk-45">
                    <mxGeometry width="30" height="30" as="geometry">
                        <mxRectangle width="30" height="30" as="alternateBounds"/>
                    </mxGeometry>
                </mxCell>
                <mxCell id="xlqCLeBauGanB82xp4Bk-47" value="Row 3" style="shape=partialRectangle;connectable=0;fillColor=none;top=0;left=0;bottom=0;right=0;align=left;spacingLeft=6;overflow=hidden;" vertex="1" parent="xlqCLeBauGanB82xp4Bk-45">
                    <mxGeometry x="30" width="150" height="30" as="geometry">
                        <mxRectangle width="150" height="30" as="alternateBounds"/>
                    </mxGeometry>
                </mxCell>
                <mxCell id="xlqCLeBauGanB82xp4Bk-48" value="List" style="swimlane;fontStyle=0;childLayout=stackLayout;horizontal=1;startSize=26;horizontalStack=0;resizeParent=1;resizeParentMax=0;resizeLast=0;collapsible=1;marginBottom=0;align=center;fontSize=14;" vertex="1" parent="1">
                    <mxGeometry x="470" y="347" width="160" height="116" as="geometry"/>
                </mxCell>
                <mxCell id="xlqCLeBauGanB82xp4Bk-49" value="Item 1" style="text;strokeColor=none;fillColor=none;spacingLeft=4;spacingRight=4;overflow=hidden;rotatable=0;points=[[0,0.5],[1,0.5]];portConstraint=eastwest;fontSize=12;" vertex="1" parent="xlqCLeBauGanB82xp4Bk-48">
                    <mxGeometry y="26" width="160" height="30" as="geometry"/>
                </mxCell>
                <mxCell id="xlqCLeBauGanB82xp4Bk-50" value="Item 2" style="text;strokeColor=none;fillColor=none;spacingLeft=4;spacingRight=4;overflow=hidden;rotatable=0;points=[[0,0.5],[1,0.5]];portConstraint=eastwest;fontSize=12;" vertex="1" parent="xlqCLeBauGanB82xp4Bk-48">
                    <mxGeometry y="56" width="160" height="30" as="geometry"/>
                </mxCell>
                <mxCell id="xlqCLeBauGanB82xp4Bk-51" value="Item 3" style="text;strokeColor=none;fillColor=none;spacingLeft=4;spacingRight=4;overflow=hidden;rotatable=0;points=[[0,0.5],[1,0.5]];portConstraint=eastwest;fontSize=12;" vertex="1" parent="xlqCLeBauGanB82xp4Bk-48">
                    <mxGeometry y="86" width="160" height="30" as="geometry"/>
                </mxCell>
                <mxCell id="xlqCLeBauGanB82xp4Bk-52" value="" style="edgeStyle=entityRelationEdgeStyle;fontSize=12;html=1;endArrow=ERmany;startArrow=ERmany;" edge="1" parent="1">
                    <mxGeometry width="100" height="100" relative="1" as="geometry">
                        <mxPoint x="10" y="620" as="sourcePoint"/>
                        <mxPoint x="110" y="520" as="targetPoint"/>
                    </mxGeometry>
                </mxCell>
                <mxCell id="xlqCLeBauGanB82xp4Bk-53" value="" style="edgeStyle=entityRelationEdgeStyle;fontSize=12;html=1;endArrow=ERzeroToMany;startArrow=ERzeroToOne;" edge="1" parent="1">
                    <mxGeometry width="100" height="100" relative="1" as="geometry">
                        <mxPoint x="90" y="780" as="sourcePoint"/>
                        <mxPoint x="190" y="680" as="targetPoint"/>
                    </mxGeometry>
                </mxCell>
                <mxCell id="xlqCLeBauGanB82xp4Bk-54" value="" style="edgeStyle=entityRelationEdgeStyle;fontSize=12;html=1;endArrow=ERzeroToMany;startArrow=ERmandOne;" edge="1" parent="1">
                    <mxGeometry width="100" height="100" relative="1" as="geometry">
                        <mxPoint x="100" y="800" as="sourcePoint"/>
                        <mxPoint x="200" y="700" as="targetPoint"/>
                    </mxGeometry>
                </mxCell>
                <mxCell id="xlqCLeBauGanB82xp4Bk-55" value="" style="edgeStyle=entityRelationEdgeStyle;fontSize=12;html=1;endArrow=ERzeroToOne;startArrow=ERmandOne;" edge="1" parent="1">
                    <mxGeometry width="100" height="100" relative="1" as="geometry">
                        <mxPoint x="110" y="820" as="sourcePoint"/>
                        <mxPoint x="210" y="720" as="targetPoint"/>
                    </mxGeometry>
                </mxCell>
                <mxCell id="xlqCLeBauGanB82xp4Bk-56" value="" style="edgeStyle=entityRelationEdgeStyle;fontSize=12;html=1;endArrow=ERoneToMany;startArrow=ERmandOne;" edge="1" parent="1">
                    <mxGeometry width="100" height="100" relative="1" as="geometry">
                        <mxPoint x="120" y="840" as="sourcePoint"/>
                        <mxPoint x="220" y="740" as="targetPoint"/>
                    </mxGeometry>
                </mxCell>
                <mxCell id="xlqCLeBauGanB82xp4Bk-57" value="" style="edgeStyle=entityRelationEdgeStyle;fontSize=12;html=1;endArrow=ERoneToMany;startArrow=ERzeroToOne;" edge="1" parent="1">
                    <mxGeometry width="100" height="100" relative="1" as="geometry">
                        <mxPoint x="130" y="860" as="sourcePoint"/>
                        <mxPoint x="230" y="760" as="targetPoint"/>
                    </mxGeometry>
                </mxCell>
                <mxCell id="xlqCLeBauGanB82xp4Bk-58" value="" style="edgeStyle=entityRelationEdgeStyle;fontSize=12;html=1;endArrow=ERoneToMany;startArrow=ERoneToMany;" edge="1" parent="1">
                    <mxGeometry width="100" height="100" relative="1" as="geometry">
                        <mxPoint x="140" y="880" as="sourcePoint"/>
                        <mxPoint x="240" y="780" as="targetPoint"/>
                    </mxGeometry>
                </mxCell>
                <mxCell id="xlqCLeBauGanB82xp4Bk-59" value="" style="edgeStyle=entityRelationEdgeStyle;fontSize=12;html=1;endArrow=ERoneToMany;startArrow=ERzeroToMany;" edge="1" parent="1">
                    <mxGeometry width="100" height="100" relative="1" as="geometry">
                        <mxPoint x="150" y="900" as="sourcePoint"/>
                        <mxPoint x="250" y="800" as="targetPoint"/>
                    </mxGeometry>
                </mxCell>
                <mxCell id="xlqCLeBauGanB82xp4Bk-60" value="" style="edgeStyle=entityRelationEdgeStyle;fontSize=12;html=1;endArrow=ERzeroToMany;endFill=1;startArrow=ERzeroToMany;" edge="1" parent="1">
                    <mxGeometry width="100" height="100" relative="1" as="geometry">
                        <mxPoint x="160" y="920" as="sourcePoint"/>
                        <mxPoint x="260" y="820" as="targetPoint"/>
                    </mxGeometry>
                </mxCell>
            </root>
        </mxGraphModel>
    </diagram>
</mxfile>